<?xml version="1.0" encoding="UTF-8"?>
<svg width="25px" height="35px" viewBox="0 0 25 35" version="1.1" xmlns="http://www.w3.org/2000/svg" xmlns:xlink="http://www.w3.org/1999/xlink">
    <!-- Generator: Sketch 55.2 (78181) - https://sketchapp.com -->
    <title>Group</title>
    <desc>Created with Sketch.</desc>
    <g id="Frames" stroke="none" stroke-width="1" fill="none" fill-rule="evenodd">
        <g id="2" transform="translate(-272.000000, -108.000000)" fill="#333333" fill-rule="nonzero">
            <g id="Group" transform="translate(272.000000, 108.800000)">
                <ellipse id="Oval" cx="12.338" cy="5.32226415" rx="5.084" ry="5.32226415"></ellipse>
                <path d="M23.436,17.6543396 L18.786,12.8513208 C17.918,11.9426415 16.74,11.4883019 15.562,11.4883019 L9.114,11.4883019 C7.874,11.4883019 6.758,12.0075472 5.89,12.9162264 L1.24,17.6543396 C0.372,18.5630189 0.372,20.1207547 1.24,20.8996226 C2.108,21.9381132 3.534,21.8732075 4.34,20.9645283 L7.192,18.0437736 L7.192,31.4792453 C7.192,32.7773585 8.184,33.8158491 9.424,33.8158491 C10.664,33.8158491 11.656,32.7773585 11.656,31.4792453 L11.656,26.4166038 C11.656,26.0271698 11.966,25.7026415 12.338,25.7026415 C12.71,25.7026415 13.02,26.0271698 13.02,26.4166038 L13.02,31.4792453 C13.02,32.7773585 14.012,33.8158491 15.252,33.8158491 C16.492,33.8158491 17.484,32.7773585 17.484,31.4792453 L17.484,17.9788679 L20.274,20.8996226 C21.142,21.8083019 22.506,21.8732075 23.374,20.834717 C24.304,20.0558491 24.304,18.5630189 23.436,17.6543396 Z" id="Path"></path>
            </g>
        </g>
    </g>
</svg>