<?xml version="1.0" encoding="UTF-8"?>
<svg width="24px" height="34px" viewBox="0 0 24 34" version="1.1" xmlns="http://www.w3.org/2000/svg" xmlns:xlink="http://www.w3.org/1999/xlink">
    <!-- Generator: Sketch 55.2 (78181) - https://sketchapp.com -->
    <title>Group</title>
    <desc>Created with Sketch.</desc>
    <g id="Frames" stroke="none" stroke-width="1" fill="none" fill-rule="evenodd">
        <g id="2" transform="translate(-182.000000, -108.000000)" fill="#333333" fill-rule="nonzero">
            <g id="Group" transform="translate(182.000000, 108.000000)">
                <ellipse id="Oval" cx="11.842" cy="5.32226415" rx="5.084" ry="5.32226415"></ellipse>
                <path d="M22.878,17.6543396 L18.228,12.8513208 C17.36,11.9426415 16.182,11.4883019 15.004,11.4883019 L8.556,11.4883019 C7.316,11.4883019 6.2,12.0075472 5.332,12.9162264 L0.744,17.7192453 C-0.124,18.6279245 -0.124,20.1856604 0.744,20.9645283 C1.612,22.0030189 2.976,21.9381132 3.844,21.029434 L6.696,18.1086792 L3.968,28.2339623 L6.696,28.2339623 L6.696,31.5441509 C6.696,32.8422642 7.688,33.8807547 8.928,33.8807547 C10.168,33.8807547 11.16,32.8422642 11.16,31.5441509 L11.16,28.2339623 L12.586,28.2339623 L12.586,31.5441509 C12.586,32.8422642 13.578,33.8807547 14.756,33.8807547 C15.996,33.8807547 16.926,32.8422642 16.926,31.5441509 L16.926,28.2339623 L19.654,28.2339623 L16.926,18.1086792 L19.778,21.029434 C20.646,21.9381132 22.072,22.0030189 22.94,20.9645283 C23.808,20.0558491 23.746,18.5630189 22.878,17.6543396 Z" id="Path"></path>
            </g>
        </g>
    </g>
</svg>