<?xml version="1.0" encoding="UTF-8"?>
<svg width="102px" height="90px" viewBox="0 0 102 90" version="1.1" xmlns="http://www.w3.org/2000/svg" xmlns:xlink="http://www.w3.org/1999/xlink">
    <!-- Generator: Sketch 55.2 (78181) - https://sketchapp.com -->
    <title>Group 5</title>
    <desc>Created with Sketch.</desc>
    <defs>
        <polygon id="path-1" points="0.202553936 0.349499791 101.220922 0.349499791 101.220922 89.2499959 0.202553936 89.2499959"></polygon>
    </defs>
    <g id="Frames" stroke="none" stroke-width="1" fill="none" fill-rule="evenodd">
        <g id="call" transform="translate(-601.000000, -165.000000)">
            <g id="Group-5" transform="translate(601.049974, 164.849997)">
                <g id="Group-4">
                    <g id="Group-3">
                        <mask id="mask-2" fill="white">
                            <use xlink:href="#path-1"></use>
                        </mask>
                        <g id="Clip-2"></g>
                        <path d="M50.704822,89.2499959 C45.9897663,89.2499959 32.3882985,79.3320901 24.6791526,71.4602405 C7.59606252,54.0170725 -9.53345913,27.8653362 6.770778,9.08341834 C20.7204829,-6.98753093 46.2106909,0.551862475 50.704822,20.0448053 C55.1997019,0.551862475 81.2381026,-6.30253721 94.6388659,9.08341834 C110.975306,27.8385612 93.8135814,54.0170725 76.7304914,71.4602405 C69.0213454,79.3320901 55.4198776,89.2499959 50.704822,89.2499959" id="Fill-1" fill="#CF3E5E" mask="url(#mask-2)"></path>
                    </g>
                    <path d="M38.239431,54.41126 C38.857271,57.6212849 40.595461,60.0711973 42.8668657,61.6776972 C45.1390193,63.2886596 47.9286607,64.0785221 50.711562,64.0792658 C53.4944634,64.0785221 56.2848537,63.2886596 58.5570073,61.6776972 C60.8284119,60.0711973 62.565853,57.6212849 63.1836931,54.41126 C63.2623273,54.0074038 62.9964688,53.6176788 62.5898177,53.5403288 C62.1839156,53.4622351 61.7914935,53.7270101 61.7128593,54.1301225 C61.1594244,56.9727349 59.6691193,59.0552348 57.68604,60.467616 C55.7029607,61.8762784 53.2106314,62.5925097 50.711562,62.5917659 C48.2132416,62.5925097 45.7209123,61.8762784 43.7378329,60.467616 C41.7540047,59.0552348 40.2644485,56.9727349 39.7102647,54.1301225 C39.6323795,53.7270101 39.2399574,53.4622351 38.8333063,53.5403288 C38.4274041,53.6176788 38.1615457,54.0074038 38.239431,54.41126" id="Fill-6" fill="#511D1B"></path>
                    <path d="M83.0639135,50.8553914 C83.0639135,54.265485 80.2802633,57.0300037 76.8465704,57.0300037 C73.4128775,57.0300037 70.6299762,54.265485 70.6299762,50.8553914 C70.6299762,47.4460416 73.4128775,44.681523 76.8465704,44.681523 C80.2802633,44.681523 83.0639135,47.4460416 83.0639135,50.8553914" id="Fill-7" fill="#E98A9B"></path>
                    <path d="M18.3592106,50.8553914 C18.3592106,54.265485 21.1428608,57.0300037 24.5765537,57.0300037 C28.0102465,57.0300037 30.7938968,54.265485 30.7938968,50.8553914 C30.7938968,47.4460416 28.0102465,44.681523 24.5765537,44.681523 C21.1428608,44.681523 18.3592106,47.4460416 18.3592106,50.8553914" id="Fill-8" fill="#E98A9B"></path>
                    <path d="M71.0179049,38.690617 C71.0179049,41.2416794 70.1738979,43.3093043 67.6695863,43.3093043 C65.0761559,43.3093043 64.3212677,41.2416794 64.3212677,38.690617 C64.3212677,36.1402984 65.0147463,34.0726735 67.6695863,34.0726735 C70.2353075,34.0726735 71.0179049,36.1402984 71.0179049,38.690617" id="Fill-9" fill="#511D1B"></path>
                </g>
                <path d="M30.4059681,38.690617 C30.4059681,41.2416794 31.2499751,43.3093043 33.7542867,43.3093043 C36.3469682,43.3093043 37.1026053,41.2416794 37.1026053,38.690617 C37.1026053,36.1402984 36.4091267,34.0726735 33.7542867,34.0726735 C31.1878166,34.0726735 30.4059681,36.1402984 30.4059681,38.690617" id="Fill-10" fill="#511D1B"></path>
            </g>
        </g>
    </g>
</svg>