<?xml version="1.0" encoding="UTF-8"?>
<svg width="63px" height="43px" viewBox="0 0 63 43" version="1.1" xmlns="http://www.w3.org/2000/svg" xmlns:xlink="http://www.w3.org/1999/xlink">
    <!-- Generator: Sketch 55.2 (78181) - https://sketchapp.com -->
    <title>Group</title>
    <desc>Created with Sketch.</desc>
    <g id="Frames" stroke="none" stroke-width="1" fill="none" fill-rule="evenodd">
        <g id="1" transform="translate(-173.000000, -321.000000)" fill="#333333" fill-rule="nonzero">
            <g id="Group" transform="translate(173.000000, 321.000000)">
                <g>
                    <ellipse id="Oval" cx="15.4225" cy="6.65283019" rx="6.355" ry="6.65283019"></ellipse>
                    <path d="M29.295,22.0679245 L23.4825,16.0641509 C22.3975,14.9283019 20.925,14.3603774 19.4525,14.3603774 L11.3925,14.3603774 C9.8425,14.3603774 8.4475,15.009434 7.3625,16.145283 L1.55,22.0679245 C0.465,23.2037736 0.465,25.1509434 1.55,26.1245283 C2.635,27.4226415 4.4175,27.3415094 5.425,26.2056604 L8.99,22.554717 L8.99,39.3490566 C8.99,40.9716981 10.23,42.2698113 11.78,42.2698113 C13.33,42.2698113 14.57,40.9716981 14.57,39.3490566 L14.57,33.0207547 C14.57,32.5339623 14.9575,32.1283019 15.4225,32.1283019 C15.8875,32.1283019 16.275,32.5339623 16.275,33.0207547 L16.275,39.3490566 C16.275,40.9716981 17.515,42.2698113 19.065,42.2698113 C20.615,42.2698113 21.855,40.9716981 21.855,39.3490566 L21.855,22.4735849 L25.3425,26.1245283 C26.4275,27.2603774 28.1325,27.3415094 29.2175,26.0433962 C30.38,25.0698113 30.38,23.2037736 29.295,22.0679245 Z" id="Path"></path>
                </g>
                <g transform="translate(33.000000, 0.000000)">
                    <ellipse id="Oval" cx="14.8025" cy="6.65283019" rx="6.355" ry="6.65283019"></ellipse>
                    <path d="M28.5975,22.0679245 L22.785,16.0641509 C21.7,14.9283019 20.2275,14.3603774 18.755,14.3603774 L10.695,14.3603774 C9.145,14.3603774 7.75,15.009434 6.665,16.145283 L0.93,22.1490566 C-0.155,23.2849057 -0.155,25.2320755 0.93,26.2056604 C2.015,27.5037736 3.72,27.4226415 4.805,26.2867925 L8.37,22.6358491 L4.96,35.2924528 L8.37,35.2924528 L8.37,39.4301887 C8.37,41.0528302 9.61,42.3509434 11.16,42.3509434 C12.71,42.3509434 13.95,41.0528302 13.95,39.4301887 L13.95,35.2924528 L15.7325,35.2924528 L15.7325,39.4301887 C15.7325,41.0528302 16.9725,42.3509434 18.445,42.3509434 C19.995,42.3509434 21.1575,41.0528302 21.1575,39.4301887 L21.1575,35.2924528 L24.5675,35.2924528 L21.1575,22.6358491 L24.7225,26.2867925 C25.8075,27.4226415 27.59,27.5037736 28.675,26.2056604 C29.76,25.0698113 29.6825,23.2037736 28.5975,22.0679245 Z" id="Path"></path>
                </g>
            </g>
        </g>
    </g>
</svg>