<?xml version="1.0" encoding="UTF-8"?>
<svg width="44px" height="43px" viewBox="0 0 44 43" version="1.1" xmlns="http://www.w3.org/2000/svg" xmlns:xlink="http://www.w3.org/1999/xlink">
    <!-- Generator: Sketch 55.2 (78181) - https://sketchapp.com -->
    <title>Shape</title>
    <desc>Created with Sketch.</desc>
    <g id="Frames" stroke="none" stroke-width="1" fill="none" fill-rule="evenodd">
        <g id="1" transform="translate(-184.000000, -670.000000)" fill="#000000">
            <path d="M220.556391,706.997468 L205.669173,691.574427 L221.052632,676.479536 C207.654135,662.861319 184,672.049513 184,691.574427 C184,710.607115 206.992481,719.959385 220.556391,706.997468 Z M203.849624,676.151386 C205.338346,676.151386 206.661654,677.29991 206.661654,678.940659 C206.661654,680.417333 205.338346,681.565858 203.849624,681.565858 C202.360902,681.565858 201.203008,680.417333 201.203008,678.940659 C201.203008,677.29991 202.360902,676.151386 203.849624,676.151386 Z M218.406015,692.066651 C218.406015,694.527775 220.556391,696.660749 223.203008,696.660749 C225.849624,696.660749 228,694.527775 228,692.066651 C228,689.441453 225.849624,687.308479 223.203008,687.308479 C220.556391,687.308479 218.406015,689.441453 218.406015,692.066651 Z" id="Shape"></path>
        </g>
    </g>
</svg>