<?xml version="1.0" encoding="UTF-8"?>
<svg width="95px" height="101px" viewBox="0 0 95 101" version="1.1" xmlns="http://www.w3.org/2000/svg" xmlns:xlink="http://www.w3.org/1999/xlink">
    <!-- Generator: Sketch 55.2 (78181) - https://sketchapp.com -->
    <title>Group 6</title>
    <desc>Created with Sketch.</desc>
    <g id="Frames" stroke="none" stroke-width="1" fill="none" fill-rule="evenodd">
        <g id="call" transform="translate(-482.000000, -158.000000)">
            <g id="Group-6" transform="translate(482.399980, 158.549998)">
                <path d="M78.0971405,46.4004241 C78.2720027,38.0601578 72.7106407,29.2181315 64.2480545,27.0819183 C67.4089677,9.04693246 40.3283941,-3.6665603 35.7231936,0.954559493 C32.2452961,4.44447933 40.2904453,11.7274657 29.5873907,22.4675185 C23.0735878,29.0038382 14.0573953,34.6658113 14.6422536,45.8217575 C14.6668087,46.2846908 14.7099662,46.7394107 14.7672614,47.1859174 C3.03958874,53.5512504 -1.57602916,65.0685832 0.469486499,77.5886893 C3.6363525,96.9699151 27.2174499,100.447888 47.2015946,100.447888 C67.1849953,100.447888 90.7668367,96.9699151 93.9337027,77.5886893 C96.0662774,64.5347166 90.958069,52.5716238 78.0971405,46.4004241" id="Fill-12" fill="#6C452B"></path>
                <path d="M34.8087015,78.7266093 C35.4233235,81.9499691 37.1496226,84.4087424 39.4064611,86.022289 C41.6640437,87.6395689 44.4365396,88.4325289 47.2015946,88.4332755 C49.9666496,88.4325289 52.7384014,87.6395689 54.995984,86.022289 C57.2535666,84.4087424 58.9798657,81.9499691 59.5937437,78.7266093 C59.6711295,78.321916 59.4069759,77.9306627 59.0036768,77.8522627 C58.6003776,77.7746093 58.209728,78.039676 58.1323421,78.4443693 C57.5817123,81.2988758 56.1017084,83.3895424 54.1306022,84.8074624 C52.1609842,86.221649 49.6838937,86.9406889 47.2015946,86.9399423 C44.7185514,86.9406889 42.2422051,86.221649 40.271843,84.8074624 C38.3014808,83.3895424 36.8207329,81.2988758 36.270103,78.4443693 C36.1927172,78.039676 35.8028117,77.7746093 35.3995125,77.8522627 C34.9954692,77.9306627 34.7313157,78.321916 34.8087015,78.7266093" id="Fill-14" fill="#0A0B09"></path>
                <path d="M79.346475,75.1575428 C79.346475,78.5810093 76.580676,81.3563692 73.1690029,81.3563692 C69.7573298,81.3563692 66.9915307,78.5810093 66.9915307,75.1575428 C66.9915307,71.7340763 69.7573298,68.9587164 73.1690029,68.9587164 C76.580676,68.9587164 79.346475,71.7340763 79.346475,75.1575428" id="Fill-15" fill="#E98A9B"></path>
                <path d="M15.0567142,75.1575428 C15.0567142,78.5810093 17.8225133,81.3563692 21.2341863,81.3563692 C24.6458594,81.3563692 27.4116585,78.5810093 27.4116585,75.1575428 C27.4116585,71.7340763 24.6458594,68.9587164 21.2341863,68.9587164 C17.8225133,68.9587164 15.0567142,71.7340763 15.0567142,75.1575428" id="Fill-16" fill="#E98A9B"></path>
                <path d="M67.3777157,62.9450633 C67.3777157,65.5053832 66.5391213,67.5811165 64.0501253,67.5811165 C61.4733262,67.5811165 60.723279,65.5053832 60.723279,62.9450633 C60.723279,60.3839968 61.4123105,58.3082636 64.0501253,58.3082636 C66.600137,58.3082636 67.3777157,60.3839968 67.3777157,62.9450633" id="Fill-17" fill="#0A0B09"></path>
                <path d="M27.0262176,62.9450633 C27.0262176,65.5053832 27.8640679,67.5811165 30.3530639,67.5811165 C32.9291189,67.5811165 33.6791661,65.5053832 33.6791661,62.9450633 C33.6791661,60.3839968 32.9908787,58.3082636 30.3530639,58.3082636 C27.8030522,58.3082636 27.0262176,60.3839968 27.0262176,62.9450633" id="Fill-18" fill="#0A0B09"></path>
            </g>
        </g>
    </g>
</svg>