<?xml version="1.0" encoding="UTF-8"?>
<svg width="69px" height="43px" viewBox="0 0 69 43" version="1.1" xmlns="http://www.w3.org/2000/svg" xmlns:xlink="http://www.w3.org/1999/xlink">
    <!-- Generator: Sketch 55.2 (78181) - https://sketchapp.com -->
    <title>Group</title>
    <desc>Created with Sketch.</desc>
    <g id="Frames" stroke="none" stroke-width="1" fill="none" fill-rule="evenodd">
        <g id="1" transform="translate(-956.000000, -321.000000)" fill="#333333" fill-rule="nonzero">
            <g id="Group" transform="translate(956.000000, 321.000000)">
                <ellipse id="Oval" cx="15.95625" cy="8.31333333" rx="7.690625" ry="7.66833333"></ellipse>
                <path d="M65.765625,0.0716666667 L33.49375,0.0716666667 C31.9125,0.0716666667 30.61875,1.36166667 30.61875,2.93833333 L30.61875,24.94 C30.61875,24.94 30.61875,24.94 30.61875,25.0116667 C31.121875,25.155 32.05625,25.37 33.49375,25.37 L33.49375,2.93833333 L65.765625,2.93833333 L65.765625,28.3083333 L40.896875,28.3083333 C41.040625,28.7383333 41.184375,29.0966667 41.25625,29.5266667 C41.328125,30.1 41.328125,30.6016667 41.184375,31.175 L65.765625,31.175 C67.346875,31.175 68.640625,29.885 68.640625,28.3083333 L68.640625,2.93833333 C68.640625,1.36166667 67.346875,0.0716666667 65.765625,0.0716666667 Z" id="Path"></path>
                <path d="M37.95,27.8783333 L42.478125,16.4833333 C42.765625,15.7666667 42.40625,14.9066667 41.6875,14.62 C40.96875,14.3333333 40.10625,14.6916667 39.81875,15.4083333 L35.003125,27.3766667 C33.49375,27.52 30.90625,27.52 29.540625,26.8033333 C28.60625,26.3733333 27.6,23.9366667 27.16875,22.8616667 C26.953125,22.36 26.7375,21.8583333 26.59375,21.5716667 C25.875,20.1383333 24.29375,18.4183333 21.059375,18.4183333 L11.284375,18.4183333 C8.76875,18.4183333 6.828125,19.7083333 5.4625,22.145 L5.175,22.7183333 C3.88125,25.0833333 2.5875,27.5916667 2.084375,29.455 C1.58125,31.5333333 0.43125,37.0516667 0.43125,37.2666667 C0.14375,38.8433333 1.15,40.42 2.73125,40.7066667 C2.946875,40.7783333 3.1625,40.85 3.30625,40.85 C4.671875,40.85 5.89375,39.8466667 6.18125,38.485 C6.18125,38.4133333 7.259375,32.895 7.7625,31.1033333 C7.978125,30.3866667 8.409375,29.3116667 8.984375,28.2366667 L8.625,40.9933333 C8.625,42.0683333 9.415625,42.9283333 10.49375,42.9283333 L21.41875,42.9283333 C22.496875,42.9283333 23.2875,42.0683333 23.2875,40.9933333 L22.85625,27.8066667 C23.790625,29.5266667 25.084375,31.3183333 27.025,32.25 C30.690625,33.97 35.9375,33.325 36.5125,33.2533333 C38.165625,33.0383333 39.24375,31.5333333 39.028125,29.9566667 C39.028125,29.025 38.596875,28.38 37.95,27.8783333 Z" id="Path"></path>
                <path d="M60.375,7.23833333 L38.884375,7.23833333 C38.09375,7.23833333 37.446875,7.88333333 37.446875,8.67166667 C37.446875,9.46 38.09375,10.105 38.884375,10.105 L60.375,10.105 C61.165625,10.105 61.8125,9.46 61.8125,8.67166667 C61.8125,7.88333333 61.165625,7.23833333 60.375,7.23833333 Z" id="Path"></path>
                <path d="M60.375,14.19 L47.221875,14.19 C46.43125,14.19 45.784375,14.835 45.784375,15.6233333 C45.784375,16.4116667 46.43125,17.0566667 47.221875,17.0566667 L60.375,17.0566667 C61.165625,17.0566667 61.8125,16.4116667 61.8125,15.6233333 C61.8125,14.835 61.165625,14.19 60.375,14.19 Z" id="Path"></path>
                <path d="M60.375,21.1416667 L47.221875,21.1416667 C46.43125,21.1416667 45.784375,21.7866667 45.784375,22.575 C45.784375,23.3633333 46.43125,24.0083333 47.221875,24.0083333 L60.375,24.0083333 C61.165625,24.0083333 61.8125,23.3633333 61.8125,22.575 C61.8125,21.7866667 61.165625,21.1416667 60.375,21.1416667 Z" id="Path"></path>
            </g>
        </g>
    </g>
</svg>